<svg id="visual" viewBox="0 0 960 540" width="960" height="540" xmlns="http://www.w3.org/2000/svg" xmlns:xlink="http://www.w3.org/1999/xlink" version="1.1"><path d="M0 206L40 234.3C80 262.7 160 319.3 240 353.3C320 387.3 400 398.7 480 375C560 351.3 640 292.7 720 278.7C800 264.7 880 295.3 920 310.7L960 326L960 541L920 541C880 541 800 541 720 541C640 541 560 541 480 541C400 541 320 541 240 541C160 541 80 541 40 541L0 541Z" fill="#8079FFcc" stroke-linecap="round" stroke-linejoin="miter"></path></svg>