<svg id="visual" viewBox="0 0 960 540" width="960" height="540" xmlns="http://www.w3.org/2000/svg" xmlns:xlink="http://www.w3.org/1999/xlink" version="1.1"><rect x="0" y="0" width="960" height="540" fill="#fff"></rect><g fill="#f5f5f5"><circle r="13" cx="226" cy="488"></circle><circle r="6" cx="950" cy="344"></circle><circle r="8" cx="609" cy="20"></circle><circle r="11" cx="43" cy="87"></circle><circle r="9" cx="598" cy="478"></circle><circle r="10" cx="878" cy="232"></circle><circle r="9" cx="152" cy="27"></circle><circle r="5" cx="150" cy="537"></circle><circle r="11" cx="287" cy="178"></circle><circle r="6" cx="583" cy="233"></circle><circle r="11" cx="533" cy="241"></circle><circle r="9" cx="525" cy="274"></circle><circle r="5" cx="424" cy="116"></circle><circle r="7" cx="485" cy="61"></circle><circle r="5" cx="271" cy="523"></circle><circle r="8" cx="522" cy="373"></circle><circle r="9" cx="195" cy="493"></circle><circle r="10" cx="180" cy="303"></circle><circle r="5" cx="838" cy="134"></circle><circle r="7" cx="329" cy="238"></circle><circle r="5" cx="433" cy="10"></circle><circle r="8" cx="462" cy="162"></circle><circle r="5" cx="934" cy="227"></circle><circle r="8" cx="193" cy="256"></circle><circle r="8" cx="823" cy="180"></circle><circle r="7" cx="360" cy="279"></circle><circle r="10" cx="755" cy="168"></circle><circle r="9" cx="636" cy="238"></circle><circle r="7" cx="411" cy="366"></circle><circle r="6" cx="193" cy="394"></circle><circle r="10" cx="253" cy="452"></circle><circle r="10" cx="279" cy="45"></circle><circle r="10" cx="165" cy="440"></circle><circle r="11" cx="515" cy="347"></circle><circle r="6" cx="852" cy="316"></circle><circle r="8" cx="158" cy="271"></circle><circle r="5" cx="589" cy="502"></circle><circle r="10" cx="39" cy="390"></circle><circle r="6" cx="764" cy="126"></circle><circle r="5" cx="762" cy="437"></circle><circle r="8" cx="409" cy="457"></circle><circle r="6" cx="953" cy="457"></circle><circle r="7" cx="693" cy="478"></circle><circle r="5" cx="782" cy="206"></circle><circle r="6" cx="323" cy="130"></circle><circle r="6" cx="827" cy="390"></circle><circle r="5" cx="473" cy="433"></circle><circle r="6" cx="246" cy="212"></circle><circle r="6" cx="65" cy="419"></circle><circle r="11" cx="387" cy="443"></circle><circle r="11" cx="226" cy="405"></circle><circle r="8" cx="597" cy="417"></circle><circle r="7" cx="926" cy="281"></circle><circle r="7" cx="116" cy="91"></circle><circle r="9" cx="148" cy="388"></circle><circle r="10" cx="560" cy="54"></circle><circle r="11" cx="456" cy="484"></circle><circle r="9" cx="544" cy="420"></circle><circle r="6" cx="682" cy="413"></circle><circle r="7" cx="732" cy="107"></circle><circle r="11" cx="766" cy="497"></circle><circle r="10" cx="147" cy="125"></circle><circle r="11" cx="357" cy="136"></circle><circle r="8" cx="272" cy="415"></circle><circle r="5" cx="385" cy="492"></circle><circle r="5" cx="435" cy="522"></circle><circle r="10" cx="944" cy="502"></circle><circle r="9" cx="581" cy="531"></circle><circle r="9" cx="550" cy="217"></circle><circle r="5" cx="216" cy="378"></circle><circle r="8" cx="635" cy="415"></circle><circle r="6" cx="52" cy="239"></circle><circle r="7" cx="474" cy="286"></circle><circle r="5" cx="329" cy="63"></circle><circle r="7" cx="543" cy="510"></circle><circle r="7" cx="539" cy="13"></circle><circle r="10" cx="68" cy="205"></circle><circle r="5" cx="231" cy="17"></circle><circle r="10" cx="806" cy="506"></circle><circle r="9" cx="461" cy="372"></circle><circle r="7" cx="248" cy="145"></circle><circle r="8" cx="231" cy="106"></circle><circle r="11" cx="238" cy="512"></circle><circle r="11" cx="304" cy="434"></circle><circle r="7" cx="811" cy="420"></circle><circle r="9" cx="319" cy="408"></circle><circle r="7" cx="785" cy="363"></circle><circle r="9" cx="817" cy="346"></circle><circle r="6" cx="615" cy="193"></circle><circle r="5" cx="77" cy="297"></circle><circle r="9" cx="831" cy="221"></circle><circle r="10" cx="50" cy="494"></circle><circle r="9" cx="25" cy="423"></circle><circle r="8" cx="294" cy="394"></circle><circle r="9" cx="697" cy="136"></circle><circle r="11" cx="258" cy="284"></circle><circle r="11" cx="726" cy="58"></circle><circle r="10" cx="868" cy="258"></circle><circle r="6" cx="702" cy="386"></circle><circle r="5" cx="143" cy="241"></circle><circle r="7" cx="468" cy="106"></circle><circle r="11" cx="361" cy="519"></circle><circle r="10" cx="99" cy="264"></circle><circle r="10" cx="795" cy="232"></circle><circle r="7" cx="215" cy="308"></circle><circle r="8" cx="624" cy="108"></circle><circle r="6" cx="501" cy="148"></circle><circle r="11" cx="395" cy="307"></circle><circle r="11" cx="515" cy="462"></circle><circle r="7" cx="260" cy="331"></circle><circle r="8" cx="734" cy="444"></circle><circle r="6" cx="132" cy="282"></circle><circle r="11" cx="147" cy="349"></circle><circle r="10" cx="176" cy="193"></circle><circle r="9" cx="446" cy="81"></circle><circle r="10" cx="299" cy="309"></circle><circle r="10" cx="638" cy="68"></circle><circle r="11" cx="903" cy="320"></circle><circle r="8" cx="195" cy="429"></circle><circle r="6" cx="913" cy="434"></circle><circle r="10" cx="853" cy="99"></circle><circle r="11" cx="123" cy="40"></circle><circle r="11" cx="2" cy="216"></circle><circle r="8" cx="867" cy="72"></circle><circle r="6" cx="193" cy="361"></circle><circle r="8" cx="799" cy="19"></circle><circle r="9" cx="811" cy="147"></circle><circle r="10" cx="527" cy="126"></circle><circle r="8" cx="577" cy="191"></circle><circle r="7" cx="36" cy="173"></circle><circle r="9" cx="904" cy="115"></circle><circle r="6" cx="142" cy="173"></circle><circle r="5" cx="758" cy="469"></circle><circle r="10" cx="314" cy="509"></circle><circle r="9" cx="79" cy="342"></circle><circle r="5" cx="183" cy="517"></circle><circle r="6" cx="665" cy="390"></circle><circle r="11" cx="924" cy="352"></circle><circle r="6" cx="790" cy="84"></circle><circle r="7" cx="464" cy="324"></circle><circle r="9" cx="690" cy="251"></circle><circle r="7" cx="543" cy="458"></circle><circle r="8" cx="209" cy="527"></circle><circle r="10" cx="319" cy="171"></circle><circle r="5" cx="728" cy="491"></circle><circle r="5" cx="936" cy="529"></circle><circle r="7" cx="839" cy="490"></circle><circle r="6" cx="85" cy="90"></circle><circle r="5" cx="20" cy="42"></circle><circle r="6" cx="565" cy="20"></circle><circle r="10" cx="615" cy="504"></circle><circle r="7" cx="219" cy="273"></circle><circle r="8" cx="553" cy="395"></circle><circle r="6" cx="504" cy="534"></circle><circle r="10" cx="706" cy="206"></circle><circle r="8" cx="436" cy="143"></circle><circle r="6" cx="22" cy="336"></circle><circle r="11" cx="351" cy="189"></circle><circle r="10" cx="191" cy="118"></circle><circle r="5" cx="471" cy="132"></circle><circle r="6" cx="83" cy="513"></circle><circle r="9" cx="215" cy="38"></circle><circle r="10" cx="367" cy="165"></circle><circle r="11" cx="614" cy="82"></circle><circle r="5" cx="696" cy="313"></circle><circle r="8" cx="760" cy="522"></circle><circle r="10" cx="808" cy="474"></circle><circle r="10" cx="682" cy="518"></circle><circle r="6" cx="296" cy="235"></circle><circle r="5" cx="385" cy="227"></circle><circle r="11" cx="297" cy="18"></circle><circle r="6" cx="865" cy="343"></circle><circle r="8" cx="197" cy="329"></circle><circle r="8" cx="104" cy="464"></circle><circle r="8" cx="103" cy="290"></circle><circle r="5" cx="666" cy="17"></circle><circle r="8" cx="892" cy="14"></circle><circle r="11" cx="487" cy="499"></circle><circle r="5" cx="597" cy="265"></circle><circle r="6" cx="432" cy="276"></circle><circle r="10" cx="908" cy="44"></circle><circle r="6" cx="196" cy="166"></circle><circle r="9" cx="192" cy="217"></circle><circle r="7" cx="90" cy="384"></circle><circle r="6" cx="382" cy="30"></circle><circle r="7" cx="119" cy="206"></circle><circle r="7" cx="15" cy="249"></circle><circle r="7" cx="124" cy="411"></circle><circle r="5" cx="8" cy="516"></circle><circle r="6" cx="121" cy="498"></circle><circle r="8" cx="32" cy="284"></circle><circle r="7" cx="618" cy="386"></circle><circle r="9" cx="631" cy="300"></circle><circle r="5" cx="216" cy="228"></circle><circle r="10" cx="59" cy="45"></circle><circle r="10" cx="681" cy="450"></circle><circle r="9" cx="531" cy="93"></circle><circle r="10" cx="729" cy="286"></circle><circle r="10" cx="326" cy="454"></circle><circle r="9" cx="293" cy="361"></circle><circle r="6" cx="291" cy="147"></circle><circle r="9" cx="391" cy="57"></circle><circle r="6" cx="41" cy="526"></circle><circle r="8" cx="946" cy="49"></circle><circle r="8" cx="753" cy="77"></circle><circle r="6" cx="643" cy="142"></circle><circle r="10" cx="484" cy="405"></circle><circle r="5" cx="164" cy="478"></circle><circle r="10" cx="122" cy="369"></circle><circle r="8" cx="567" cy="260"></circle><circle r="10" cx="822" cy="292"></circle><circle r="10" cx="44" cy="15"></circle><circle r="9" cx="210" cy="64"></circle><circle r="11" cx="658" cy="319"></circle><circle r="11" cx="844" cy="6"></circle><circle r="9" cx="586" cy="35"></circle><circle r="6" cx="353" cy="27"></circle><circle r="5" cx="559" cy="119"></circle><circle r="9" cx="108" cy="16"></circle><circle r="7" cx="726" cy="347"></circle><circle r="5" cx="139" cy="465"></circle><circle r="5" cx="177" cy="13"></circle><circle r="8" cx="503" cy="205"></circle><circle r="7" cx="884" cy="431"></circle><circle r="6" cx="295" cy="490"></circle><circle r="5" cx="249" cy="357"></circle><circle r="9" cx="724" cy="410"></circle><circle r="11" cx="220" cy="140"></circle><circle r="9" cx="182" cy="77"></circle><circle r="10" cx="937" cy="418"></circle><circle r="5" cx="273" cy="80"></circle><circle r="7" cx="250" cy="386"></circle><circle r="8" cx="880" cy="396"></circle><circle r="5" cx="97" cy="439"></circle><circle r="7" cx="627" cy="164"></circle><circle r="11" cx="901" cy="379"></circle><circle r="5" cx="768" cy="341"></circle><circle r="7" cx="881" cy="306"></circle><circle r="8" cx="267" cy="476"></circle><circle r="7" cx="264" cy="124"></circle><circle r="10" cx="417" cy="169"></circle><circle r="5" cx="600" cy="335"></circle><circle r="11" cx="911" cy="243"></circle><circle r="6" cx="214" cy="457"></circle><circle r="6" cx="687" cy="161"></circle><circle r="11" cx="873" cy="176"></circle><circle r="8" cx="7" cy="87"></circle><circle r="9" cx="604" cy="135"></circle><circle r="10" cx="163" cy="412"></circle><circle r="11" cx="351" cy="320"></circle><circle r="10" cx="762" cy="265"></circle><circle r="11" cx="551" cy="187"></circle><circle r="10" cx="341" cy="384"></circle><circle r="6" cx="442" cy="202"></circle><circle r="6" cx="909" cy="491"></circle><circle r="8" cx="570" cy="457"></circle><circle r="11" cx="920" cy="81"></circle><circle r="11" cx="827" cy="107"></circle><circle r="7" cx="898" cy="270"></circle><circle r="6" cx="838" cy="74"></circle><circle r="10" cx="488" cy="376"></circle><circle r="10" cx="356" cy="88"></circle><circle r="9" cx="69" cy="471"></circle><circle r="7" cx="662" cy="282"></circle><circle r="5" cx="569" cy="310"></circle><circle r="8" cx="625" cy="444"></circle><circle r="11" cx="782" cy="145"></circle><circle r="11" cx="113" cy="317"></circle><circle r="6" cx="394" cy="148"></circle><circle r="8" cx="355" cy="484"></circle><circle r="6" cx="352" cy="349"></circle><circle r="7" cx="97" cy="57"></circle><circle r="10" cx="5" cy="115"></circle><circle r="10" cx="612" cy="46"></circle><circle r="9" cx="323" cy="264"></circle><circle r="10" cx="895" cy="525"></circle><circle r="9" cx="651" cy="525"></circle><circle r="8" cx="508" cy="297"></circle><circle r="8" cx="120" cy="140"></circle><circle r="8" cx="691" cy="108"></circle><circle r="11" cx="505" cy="254"></circle><circle r="6" cx="658" cy="107"></circle><circle r="9" cx="628" cy="265"></circle><circle r="6" cx="732" cy="234"></circle><circle r="7" cx="673" cy="226"></circle><circle r="6" cx="402" cy="196"></circle><circle r="5" cx="642" cy="467"></circle><circle r="7" cx="358" cy="417"></circle><circle r="11" cx="914" cy="204"></circle><circle r="7" cx="270" cy="11"></circle><circle r="11" cx="851" cy="419"></circle><circle r="10" cx="215" cy="184"></circle><circle r="10" cx="673" cy="353"></circle><circle r="5" cx="512" cy="409"></circle><circle r="10" cx="246" cy="245"></circle><circle r="10" cx="931" cy="168"></circle><circle r="7" cx="420" cy="483"></circle><circle r="6" cx="424" cy="248"></circle><circle r="6" cx="8" cy="444"></circle><circle r="5" cx="878" cy="465"></circle><circle r="6" cx="72" cy="444"></circle><circle r="10" cx="703" cy="276"></circle><circle r="8" cx="426" cy="334"></circle><circle r="10" cx="305" cy="539"></circle><circle r="6" cx="404" cy="92"></circle><circle r="6" cx="778" cy="405"></circle><circle r="5" cx="101" cy="115"></circle><circle r="8" cx="441" cy="45"></circle><circle r="8" cx="64" cy="135"></circle><circle r="9" cx="506" cy="104"></circle><circle r="9" cx="473" cy="211"></circle><circle r="11" cx="438" cy="443"></circle><circle r="9" cx="248" cy="72"></circle><circle r="10" cx="52" cy="322"></circle><circle r="8" cx="694" cy="65"></circle><circle r="6" cx="775" cy="46"></circle><circle r="7" cx="449" cy="411"></circle><circle r="11" cx="796" cy="291"></circle><circle r="8" cx="573" cy="336"></circle><circle r="11" cx="328" cy="303"></circle><circle r="11" cx="847" cy="453"></circle><circle r="9" cx="639" cy="341"></circle><circle r="6" cx="734" cy="520"></circle><circle r="8" cx="954" cy="196"></circle><circle r="11" cx="946" cy="77"></circle><circle r="10" cx="594" cy="166"></circle><circle r="6" cx="3" cy="177"></circle><circle r="11" cx="175" cy="139"></circle><circle r="10" cx="178" cy="39"></circle><circle r="7" cx="76" cy="161"></circle><circle r="8" cx="883" cy="136"></circle><circle r="5" cx="680" cy="197"></circle><circle r="10" cx="539" cy="302"></circle><circle r="5" cx="953" cy="149"></circle><circle r="8" cx="529" cy="156"></circle><circle r="7" cx="933" cy="380"></circle><circle r="7" cx="639" cy="4"></circle><circle r="11" cx="154" cy="504"></circle><circle r="5" cx="877" cy="39"></circle><circle r="8" cx="234" cy="433"></circle><circle r="6" cx="700" cy="341"></circle><circle r="11" cx="708" cy="3"></circle><circle r="8" cx="792" cy="442"></circle><circle r="11" cx="806" cy="536"></circle><circle r="8" cx="401" cy="532"></circle><circle r="6" cx="314" cy="333"></circle><circle r="9" cx="519" cy="490"></circle><circle r="6" cx="765" cy="306"></circle><circle r="6" cx="261" cy="184"></circle><circle r="5" cx="645" cy="367"></circle><circle r="8" cx="495" cy="5"></circle><circle r="8" cx="31" cy="127"></circle><circle r="10" cx="160" cy="93"></circle><circle r="5" cx="610" cy="360"></circle><circle r="9" cx="571" cy="82"></circle><circle r="7" cx="931" cy="324"></circle><circle r="7" cx="954" cy="251"></circle><circle r="7" cx="114" cy="178"></circle><circle r="7" cx="123" cy="527"></circle><circle r="5" cx="878" cy="493"></circle><circle r="9" cx="835" cy="264"></circle><circle r="8" cx="516" cy="55"></circle><circle r="10" cx="398" cy="408"></circle><circle r="6" cx="62" cy="371"></circle><circle r="11" cx="745" cy="385"></circle><circle r="7" cx="920" cy="6"></circle><circle r="10" cx="490" cy="233"></circle><circle r="7" cx="844" cy="534"></circle><circle r="6" cx="597" cy="299"></circle><circle r="7" cx="902" cy="167"></circle><circle r="5" cx="312" cy="43"></circle><circle r="8" cx="286" cy="110"></circle><circle r="11" cx="384" cy="258"></circle><circle r="6" cx="459" cy="20"></circle><circle r="10" cx="80" cy="30"></circle><circle r="6" cx="707" cy="531"></circle><circle r="10" cx="55" cy="267"></circle><circle r="7" cx="456" cy="254"></circle><circle r="8" cx="4" cy="362"></circle><circle r="9" cx="543" cy="349"></circle><circle r="8" cx="749" cy="213"></circle><circle r="7" cx="34" cy="205"></circle><circle r="7" cx="508" cy="179"></circle><circle r="8" cx="655" cy="440"></circle><circle r="11" cx="321" cy="369"></circle><circle r="5" cx="799" cy="110"></circle><circle r="10" cx="385" cy="364"></circle><circle r="11" cx="950" cy="8"></circle><circle r="10" cx="307" cy="84"></circle><circle r="11" cx="145" cy="307"></circle><circle r="9" cx="16" cy="305"></circle><circle r="9" cx="954" cy="399"></circle><circle r="11" cx="693" cy="37"></circle><circle r="11" cx="14" cy="12"></circle><circle r="7" cx="276" cy="209"></circle><circle r="10" cx="489" cy="321"></circle><circle r="11" cx="844" cy="198"></circle><circle r="11" cx="164" cy="223"></circle><circle r="11" cx="825" cy="40"></circle><circle r="7" cx="305" cy="210"></circle><circle r="9" cx="848" cy="367"></circle><circle r="6" cx="710" cy="179"></circle><circle r="8" cx="921" cy="460"></circle><circle r="8" cx="415" cy="31"></circle><circle r="9" cx="582" cy="377"></circle><circle r="5" cx="478" cy="182"></circle><circle r="11" cx="742" cy="322"></circle><circle r="8" cx="727" cy="149"></circle><circle r="6" cx="94" cy="234"></circle><circle r="11" cx="669" cy="75"></circle><circle r="11" cx="147" cy="61"></circle><circle r="11" cx="719" cy="27"></circle><circle r="10" cx="894" cy="78"></circle><circle r="10" cx="738" cy="6"></circle><circle r="11" cx="948" cy="116"></circle><circle r="11" cx="926" cy="142"></circle><circle r="5" cx="768" cy="18"></circle><circle r="7" cx="882" cy="200"></circle><circle r="9" cx="659" cy="47"></circle><circle r="5" cx="242" cy="46"></circle><circle r="10" cx="203" cy="1"></circle><circle r="5" cx="473" cy="461"></circle><circle r="11" cx="433" cy="303"></circle><circle r="7" cx="340" cy="5"></circle><circle r="9" cx="499" cy="441"></circle><circle r="7" cx="654" cy="180"></circle><circle r="7" cx="416" cy="69"></circle><circle r="8" cx="375" cy="4"></circle><circle r="5" cx="356" cy="446"></circle><circle r="10" cx="272" cy="261"></circle><circle r="5" cx="717" cy="82"></circle><circle r="8" cx="469" cy="521"></circle><circle r="7" cx="94" cy="142"></circle><circle r="11" cx="779" cy="179"></circle><circle r="5" cx="895" cy="349"></circle><circle r="6" cx="879" cy="100"></circle><circle r="11" cx="219" cy="351"></circle><circle r="5" cx="595" cy="102"></circle><circle r="9" cx="561" cy="148"></circle><circle r="11" cx="29" cy="469"></circle><circle r="11" cx="809" cy="316"></circle><circle r="10" cx="545" cy="538"></circle><circle r="5" cx="10" cy="489"></circle><circle r="6" cx="810" cy="66"></circle><circle r="6" cx="35" cy="362"></circle><circle r="9" cx="658" cy="490"></circle><circle r="7" cx="130" cy="439"></circle><circle r="6" cx="188" cy="456"></circle><circle r="10" cx="640" cy="207"></circle><circle r="11" cx="489" cy="31"></circle><circle r="8" cx="420" cy="425"></circle><circle r="7" cx="335" cy="532"></circle><circle r="5" cx="747" cy="43"></circle><circle r="8" cx="422" cy="221"></circle><circle r="5" cx="423" cy="396"></circle><circle r="11" cx="957" cy="371"></circle><circle r="5" cx="135" cy="3"></circle><circle r="8" cx="2" cy="398"></circle><circle r="5" cx="354" cy="253"></circle><circle r="8" cx="400" cy="340"></circle><circle r="5" cx="586" cy="4"></circle><circle r="5" cx="347" cy="219"></circle><circle r="8" cx="869" cy="523"></circle><circle r="8" cx="717" cy="465"></circle><circle r="8" cx="669" cy="134"></circle><circle r="9" cx="402" cy="5"></circle><circle r="9" cx="18" cy="152"></circle><circle r="5" cx="612" cy="534"></circle><circle r="6" cx="958" cy="288"></circle><circle r="10" cx="820" cy="447"></circle><circle r="11" cx="514" cy="23"></circle><circle r="7" cx="398" cy="119"></circle><circle r="6" cx="916" cy="402"></circle><circle r="5" cx="808" cy="203"></circle><circle r="7" cx="398" cy="281"></circle><circle r="8" cx="851" cy="287"></circle><circle r="7" cx="375" cy="332"></circle><circle r="7" cx="591" cy="65"></circle><circle r="6" cx="64" cy="72"></circle><circle r="9" cx="60" cy="106"></circle><circle r="6" cx="770" cy="237"></circle><circle r="11" cx="242" cy="307"></circle><circle r="6" cx="845" cy="160"></circle><circle r="9" cx="244" cy="538"></circle><circle r="10" cx="734" cy="189"></circle><circle r="5" cx="797" cy="262"></circle><circle r="8" cx="664" cy="254"></circle><circle r="7" cx="89" cy="488"></circle><circle r="6" cx="90" cy="412"></circle><circle r="11" cx="209" cy="90"></circle><circle r="7" cx="3" cy="272"></circle><circle r="11" cx="169" cy="370"></circle><circle r="10" cx="170" cy="332"></circle><circle r="11" cx="558" cy="285"></circle><circle r="5" cx="614" cy="223"></circle><circle r="8" cx="597" cy="451"></circle><circle r="11" cx="81" cy="2"></circle><circle r="11" cx="238" cy="173"></circle><circle r="9" cx="117" cy="246"></circle><circle r="11" cx="291" cy="281"></circle><circle r="11" cx="280" cy="449"></circle><circle r="7" cx="332" cy="103"></circle><circle r="10" cx="554" cy="484"></circle><circle r="9" cx="707" cy="436"></circle><circle r="11" cx="478" cy="347"></circle><circle r="10" cx="528" cy="201"></circle><circle r="7" cx="323" cy="481"></circle><circle r="5" cx="768" cy="99"></circle><circle r="9" cx="370" cy="111"></circle><circle r="5" cx="355" cy="59"></circle><circle r="11" cx="640" cy="31"></circle><circle r="9" cx="287" cy="336"></circle><circle r="5" cx="69" cy="536"></circle><circle r="6" cx="850" cy="47"></circle><circle r="7" cx="377" cy="390"></circle><circle r="8" cx="736" cy="260"></circle><circle r="7" cx="750" cy="411"></circle><circle r="6" cx="802" cy="385"></circle><circle r="11" cx="341" cy="156"></circle><circle r="10" cx="302" cy="465"></circle><circle r="9" cx="818" cy="1"></circle><circle r="9" cx="375" cy="202"></circle><circle r="11" cx="44" cy="444"></circle><circle r="5" cx="91" cy="192"></circle><circle r="8" cx="117" cy="344"></circle><circle r="6" cx="437" cy="361"></circle><circle r="8" cx="849" cy="239"></circle><circle r="9" cx="537" cy="39"></circle><circle r="6" cx="96" cy="539"></circle><circle r="6" cx="705" cy="502"></circle><circle r="6" cx="568" cy="432"></circle><circle r="5" cx="959" cy="319"></circle><circle r="5" cx="147" cy="201"></circle></g></svg>