<svg id="visual" viewBox="0 0 900 600" width="900" height="600" xmlns="http://www.w3.org/2000/svg" xmlns:xlink="http://www.w3.org/1999/xlink" version="1.1"><rect x="0" y="0" width="900" height="600" fill="#fff"></rect><path d="M0 412L12.5 422.7C25 433.3 50 454.7 75 458.3C100 462 125 448 150 444.8C175 441.7 200 449.3 225 456.5C250 463.7 275 470.3 300 465.5C325 460.7 350 444.3 375 438C400 431.7 425 435.3 450 443.7C475 452 500 465 525 470.8C550 476.7 575 475.3 600 464.7C625 454 650 434 675 435.7C700 437.3 725 460.7 750 468C775 475.3 800 466.7 825 456.8C850 447 875 436 887.5 430.5L900 425L900 601L887.5 601C875 601 850 601 825 601C800 601 775 601 750 601C725 601 700 601 675 601C650 601 625 601 600 601C575 601 550 601 525 601C500 601 475 601 450 601C425 601 400 601 375 601C350 601 325 601 300 601C275 601 250 601 225 601C200 601 175 601 150 601C125 601 100 601 75 601C50 601 25 601 12.5 601L0 601Z" fill="#c62368"></path><path d="M0 459L12.5 463C25 467 50 475 75 478.7C100 482.3 125 481.7 150 487.2C175 492.7 200 504.3 225 505.2C250 506 275 496 300 490.3C325 484.7 350 483.3 375 487.7C400 492 425 502 450 507.8C475 513.7 500 515.3 525 506.3C550 497.3 575 477.7 600 472.3C625 467 650 476 675 482.3C700 488.7 725 492.3 750 497.3C775 502.3 800 508.7 825 501.8C850 495 875 475 887.5 465L900 455L900 601L887.5 601C875 601 850 601 825 601C800 601 775 601 750 601C725 601 700 601 675 601C650 601 625 601 600 601C575 601 550 601 525 601C500 601 475 601 450 601C425 601 400 601 375 601C350 601 325 601 300 601C275 601 250 601 225 601C200 601 175 601 150 601C125 601 100 601 75 601C50 601 25 601 12.5 601L0 601Z" fill="#e34c67"></path><path d="M0 568L12.5 562C25 556 50 544 75 537.3C100 530.7 125 529.3 150 531.7C175 534 200 540 225 538.7C250 537.3 275 528.7 300 529.7C325 530.7 350 541.3 375 545.2C400 549 425 546 450 539C475 532 500 521 525 520.2C550 519.3 575 528.7 600 536.7C625 544.7 650 551.3 675 550.3C700 549.3 725 540.7 750 537.2C775 533.7 800 535.3 825 531.8C850 528.3 875 519.7 887.5 515.3L900 511L900 601L887.5 601C875 601 850 601 825 601C800 601 775 601 750 601C725 601 700 601 675 601C650 601 625 601 600 601C575 601 550 601 525 601C500 601 475 601 450 601C425 601 400 601 375 601C350 601 325 601 300 601C275 601 250 601 225 601C200 601 175 601 150 601C125 601 100 601 75 601C50 601 25 601 12.5 601L0 601Z" fill="#fa7268"></path></svg>