<svg width="400" height="400" viewBox="0 0 400 400" fill="none" xmlns="http://www.w3.org/2000/svg">
<rect width="400" height="400" fill="#C4C4C4"/>
<circle cx="199.5" cy="116.5" r="67.5" fill="white"/>
<path d="M296 200C296 219.567 293.504 238.942 288.654 257.02C283.805 275.097 276.697 291.523 267.736 305.359C258.775 319.195 248.137 330.17 236.429 337.658C224.721 345.146 212.173 349 199.5 349C186.827 349 174.279 345.146 162.571 337.658C150.863 330.17 140.225 319.195 131.264 305.359C122.303 291.523 115.195 275.097 110.346 257.02C105.496 238.942 103 219.567 103 200L173.746 200C173.746 205.222 174.412 210.393 175.707 215.217C177.001 220.042 178.898 224.425 181.289 228.118C183.681 231.81 186.52 234.739 189.644 236.738C192.769 238.736 196.118 239.765 199.5 239.765C202.882 239.765 206.231 238.736 209.356 236.738C212.48 234.739 215.319 231.81 217.711 228.118C220.102 224.425 221.999 220.042 223.293 215.217C224.588 210.393 225.254 205.222 225.254 200H296Z" fill="white"/>
</svg>
